<svg xmlns="http://www.w3.org/2000/svg" xmlns:xlink="http://www.w3.org/1999/xlink" width="65.004" height="57.999" viewBox="0 0 65.004 57.999">
  <defs>
    <linearGradient id="linear-gradient" x1="0.5" y1="0.998" x2="0.5" y2="-0.002" gradientUnits="objectBoundingBox">
      <stop offset="0" stop-color="#18bffb"/>
      <stop offset="1" stop-color="#2072f3"/>
    </linearGradient>
    <filter id="Rectangle_3470" x="23.004" y="0" width="42" height="42" filterUnits="userSpaceOnUse">
      <feOffset dy="3" input="SourceAlpha"/>
      <feGaussianBlur stdDeviation="3" result="blur"/>
      <feFlood flood-color="#1f343e" flood-opacity="0.157"/>
      <feComposite operator="in" in2="blur"/>
      <feComposite in="SourceGraphic"/>
    </filter>
    <clipPath id="clip-path">
      <rect id="Rectangle_33" data-name="Rectangle 33" width="14" height="16" transform="translate(-0.001 0)" fill="none"/>
    </clipPath>
  </defs>
  <g id="Apple_Store_Icon" data-name="Apple Store Icon" transform="translate(-35.996 -290)">
    <g id="App_Store__iOS_" data-name="App_Store_(iOS)" transform="translate(35.996 300.001)">
      <path id="Path_12879" data-name="Path 12879" d="M38.3,0H9.7A9.692,9.692,0,0,0,0,9.7V38.308A9.69,9.69,0,0,0,9.7,48H38.308A9.7,9.7,0,0,0,48,38.3V9.7A9.7,9.7,0,0,0,38.3,0Z" fill="url(#linear-gradient)"/>
      <path id="Path_12880" data-name="Path 12880" d="M124,140.221l.972-1.68a2.188,2.188,0,1,1,3.792,2.184L119.4,156.937h6.774a3,3,0,0,1,2.472,4.368H108.784a2.184,2.184,0,1,1,0-4.368h5.568l7.128-12.353-2.226-3.864a2.188,2.188,0,0,1,3.792-2.184l.954,1.686Zm-8.424,23.333-2.1,3.642a2.188,2.188,0,0,1-3.792-2.184l1.56-2.7a3.739,3.739,0,0,1,4.332,1.242Zm18.083-6.606h5.682a2.184,2.184,0,1,1,0,4.368h-3.156l2.13,3.7a2.188,2.188,0,0,1-3.792,2.184q-5.382-9.333-8.07-13.979a6.042,6.042,0,0,1,.768-7.4q2.151,3.69,6.438,11.129Z" transform="translate(-100.204 -129.194)" fill="#fff"/>
    </g>
    <g id="Group_7588" data-name="Group 7588" transform="translate(-940 -911)">
      <g transform="matrix(1, 0, 0, 1, 976, 1201)" filter="url(#Rectangle_3470)">
        <rect id="Rectangle_3470-2" data-name="Rectangle 3470" width="24" height="24" rx="8" transform="translate(32 6)" fill="#4eb3e3"/>
      </g>
      <g id="Group_8421" data-name="Group 8421" transform="translate(1013.449 1210.868)">
        <g id="Group_22" data-name="Group 22" transform="translate(-0.449 0.132)" clip-path="url(#clip-path)">
          <path id="Path_244" data-name="Path 244" d="M62.381,11.52a3.15,3.15,0,0,0-.376.023,3.3,3.3,0,0,0-.9.243c-2.019.858-3.506,3.7-3.506,7.066s1.487,6.208,3.506,7.066a3.3,3.3,0,0,0,.9.243,3.15,3.15,0,0,0,.376.023c2.636,0,4.781-3.289,4.781-7.331s-2.145-7.331-4.781-7.331" transform="translate(-54.191 -10.948)" fill="#f8cc5d"/>
          <path id="Path_245" data-name="Path 245" d="M13.874,92.16H11.983a10.647,10.647,0,0,0-.377,2.55h1.913a11.315,11.315,0,0,1,.355-2.55" transform="translate(-10.742 -87.125)" fill="#f8cc5d"/>
          <path id="Path_246" data-name="Path 246" d="M24.83,46.08H23.041a7.776,7.776,0,0,0-.981,1.913h1.878a8.775,8.775,0,0,1,.892-1.913" transform="translate(-20.618 -43.595)" fill="#f8cc5d"/>
          <path id="Path_247" data-name="Path 247" d="M13.52,149.76H11.607a10.647,10.647,0,0,0,.377,2.55h1.891a11.318,11.318,0,0,1-.355-2.55" transform="translate(-10.743 -141.538)" fill="#f8cc5d"/>
          <path id="Path_248" data-name="Path 248" d="M52.353,11.543a3.162,3.162,0,0,0-.376-.023A3.733,3.733,0,0,0,49.286,12.8H51a5.587,5.587,0,0,1,1.355-1.252" transform="translate(-46.337 -10.948)" fill="#f8cc5d"/>
          <path id="Path_249" data-name="Path 249" d="M23.937,207.36H22.059a7.778,7.778,0,0,0,.981,1.913h1.789a8.78,8.78,0,0,1-.892-1.913" transform="translate(-20.617 -195.95)" fill="#f8cc5d"/>
          <path id="Path_250" data-name="Path 250" d="M51,253.44H49.286a3.734,3.734,0,0,0,2.691,1.275,3.148,3.148,0,0,0,.376-.023A5.587,5.587,0,0,1,51,253.44" transform="translate(-46.337 -239.48)" fill="#f8cc5d"/>
          <path id="Path_251" data-name="Path 251" d="M7.969,0H5.419A4.734,4.734,0,0,0,1.547,2.383,10.158,10.158,0,0,0,0,7.969a10.158,10.158,0,0,0,1.547,5.586,4.734,4.734,0,0,0,3.872,2.383h2.55a4.734,4.734,0,0,0,3.872-2.383,10.158,10.158,0,0,0,1.547-5.586A10.158,10.158,0,0,0,11.84,2.383,4.734,4.734,0,0,0,7.969,0M5.419.638A3.151,3.151,0,0,1,5.795.66,5.586,5.586,0,0,0,4.439,1.913H2.727A3.733,3.733,0,0,1,5.419.638M2.2,2.55H3.991A8.778,8.778,0,0,0,3.1,4.463H1.221A7.778,7.778,0,0,1,2.2,2.55M1.019,5.1H2.91a11.318,11.318,0,0,0-.355,2.55H.642A10.641,10.641,0,0,1,1.019,5.1M.642,8.288H2.555a11.318,11.318,0,0,0,.355,2.55H1.019a10.641,10.641,0,0,1-.377-2.55m1.559,5.1a7.778,7.778,0,0,1-.981-1.913H3.1a8.778,8.778,0,0,0,.892,1.913ZM5.419,15.3a3.733,3.733,0,0,1-2.691-1.275H4.439a5.585,5.585,0,0,0,1.355,1.252,3.151,3.151,0,0,1-.376.023m2.55,0a3.151,3.151,0,0,1-.376-.023,3.3,3.3,0,0,1-.9-.243c-2.019-.858-3.506-3.7-3.506-7.066S4.674,1.76,6.694.9a3.3,3.3,0,0,1,.9-.243A3.151,3.151,0,0,1,7.969.638c2.636,0,4.781,3.289,4.781,7.331S10.605,15.3,7.969,15.3" transform="translate(0.221 -0.065)" fill="#1f343e"/>
          <path id="Path_252" data-name="Path 252" d="M106.641,62.731l-1.617,6.392a.224.224,0,0,1-.158.167.21.21,0,0,1-.095,0,.281.281,0,0,1-.211-.263l-.2-3.686-2.055.536a.23.23,0,0,1-.217-.063.3.3,0,0,1-.09-.231l.289-4.82a.232.232,0,0,1,.165-.219l2.075-.541a.231.231,0,0,1,.221.067.3.3,0,0,1,.084.239l-.259,2.534,1.766-.461a.234.234,0,0,1,.235.082.3.3,0,0,1,.064.263" transform="translate(-96.135 -56.745)" fill="#ff007c"/>
          <path id="Path_253" data-name="Path 253" d="M106.342,62.385l-1.766.461.259-2.534a.3.3,0,0,0-.084-.239.231.231,0,0,0-.221-.067l-2.075.541a.232.232,0,0,0-.165.219L102,65.586a.3.3,0,0,0,.09.231.23.23,0,0,0,.217.063l2.055-.536.2,3.686a.281.281,0,0,0,.211.263.21.21,0,0,0,.1,0,.224.224,0,0,0,.157-.167l1.617-6.392a.3.3,0,0,0-.064-.263.235.235,0,0,0-.235-.082" transform="translate(-96.135 -56.745)" fill="#1f343e"/>
        </g>
      </g>
    </g>
  </g>
</svg>
