<svg xmlns="http://www.w3.org/2000/svg" width="18.001" height="17.996" viewBox="0 0 18.001 17.996">
  <g transform="translate(-342 -22.004)">
    <path id="Icon_ionic-ios-close" data-name="Icon ionic-ios-close" d="M21.181,19.287,26.9,13.572A1.339,1.339,0,0,0,25,11.678l-5.715,5.715-5.715-5.715a1.339,1.339,0,1,0-1.894,1.894l5.715,5.715L11.679,25a1.339,1.339,0,1,0,1.894,1.894l5.715-5.715L25,26.895A1.339,1.339,0,1,0,26.9,25Z" transform="translate(331.715 11.715)" fill="#bdc1c3"/>
    <path id="Icon_ionic-ios-close_-_Outline" data-name="Icon ionic-ios-close - Outline" d="M12.626,11.289a1.336,1.336,0,0,0-.947,2.283l5.715,5.715L11.679,25a1.339,1.339,0,0,0,1.894,1.894l5.715-5.715L25,26.895A1.339,1.339,0,0,0,26.9,25l-5.715-5.715L26.9,13.572A1.339,1.339,0,0,0,25,11.678l-5.715,5.715-5.715-5.715a1.335,1.335,0,0,0-.947-.39m0-1a2.323,2.323,0,0,1,1.654.683l5.007,5.007,5.007-5.007A2.339,2.339,0,0,1,27.6,14.279L22.6,19.287,27.6,24.294A2.339,2.339,0,0,1,24.295,27.6l-5.007-5.007L14.28,27.6a2.339,2.339,0,1,1-3.308-3.308l5.007-5.007-5.007-5.007a2.336,2.336,0,0,1,1.654-3.99Z" transform="translate(331.715 11.715)" fill="#1f343e"/>
  </g>
</svg>
