<svg xmlns="http://www.w3.org/2000/svg" width="144" height="144" viewBox="0 0 144 144">
  <g id="Collect_coins_img" data-name="Collect coins img" transform="translate(-1359.615 -427.615)">
    <rect id="Rectangle_4397" data-name="Rectangle 4397" width="144" height="144" transform="translate(1359.615 427.615)" fill="none"/>
    <path id="Path_21118" data-name="Path 21118" d="M197.153,225.025a8.385,8.385,0,0,0-11.811.994l-19.189,19.723h.02a8.579,8.579,0,0,0-8.234-6.173H126.158a33.556,33.556,0,0,0-13.474-2.805c-13.276,0-24.756,6.436-30.238,18.631l25.368,25.239.047-.037,4.368-4.214a11.215,11.215,0,0,1,7.791-3.147h37.39A22.35,22.35,0,0,0,173,266.9l25.15-30.068a8.381,8.381,0,0,0-.994-11.81Zm0,0" transform="translate(1300.531 267.485)" fill="#fed2a4"/>
    <path id="Path_21120" data-name="Path 21120" d="M55.333,368.725,41.746,382.111l-31.5-31.741,13.346-13.386a5.613,5.613,0,0,1,7.936,0l23.8,23.8a5.613,5.613,0,0,1,0,7.936Zm0,0" transform="translate(1352.487 186.699)" fill="#ed6f82"/>
    <path id="Path_21121" data-name="Path 21121" d="M223.515,334.985a2.807,2.807,0,1,0-3.969,0A2.81,2.81,0,0,0,223.515,334.985Zm0,0" transform="translate(1202.505 190.408)" fill="#1f343e"/>
    <path id="Path_21123" data-name="Path 21123" d="M32.811,295.587a2.8,2.8,0,0,0,3.959.023l13.6-13.4a8.479,8.479,0,0,0,2-8.706l2.925-2.822a8.365,8.365,0,0,1,5.841-2.36H98.424a25.113,25.113,0,0,0,17.609-7.155c.2-.19-1.481,1.785,25.44-30.4A11.221,11.221,0,0,0,124.4,216.207l-16.553,17.015a11.273,11.273,0,0,0-8.721-4.177H67.846A36.185,36.185,0,0,0,53.8,226.241c-13.508,0-25.3,6.24-31.632,17.938a8.379,8.379,0,0,0-7.5,2.325L1.32,259.889a2.806,2.806,0,0,0,0,3.957ZM53.8,231.851a30.618,30.618,0,0,1,12.349,2.571,2.8,2.8,0,0,0,1.125.236H99.126a5.611,5.611,0,0,1,0,11.222H76.239a2.805,2.805,0,0,0,0,5.61H99.126A11.205,11.205,0,0,0,110.247,238.8c16.012-16.461,18.27-18.774,18.367-18.89a5.611,5.611,0,1,1,8.567,7.25l-25.16,30.082a19.531,19.531,0,0,1-13.6,5.469H61.133a13.946,13.946,0,0,0-9.737,3.933l-2.384,2.3L27.036,246.969c5.136-9.637,14.774-15.118,26.761-15.118ZM18.634,250.469a2.8,2.8,0,0,1,3.473-.395c.486.3-.909-.973,24.3,24.2a2.811,2.811,0,0,1,.015,3.954L34.825,289.651,7.262,261.875Zm0,0" transform="translate(1359.498 275.198)" fill="#1f343e"/>
    <path id="Path_21124" data-name="Path 21124" d="M271.328,42.883v3.2a8.415,8.415,0,0,0,2.755,16.35,2.855,2.855,0,0,1,2.838,2.482,2.809,2.809,0,0,1-2.788,3.13,5.039,5.039,0,0,1-3.6-2.072,2.859,2.859,0,0,0-3.61-.666,2.808,2.808,0,0,0-.727,4.227,11.636,11.636,0,0,0,5.132,3.654v3.187a2.864,2.864,0,0,0,2.388,2.863,2.807,2.807,0,0,0,3.222-2.776V73.173a8.415,8.415,0,0,0-2.755-16.35,2.855,2.855,0,0,1-2.838-2.482,2.809,2.809,0,0,1,2.788-3.13,4.448,4.448,0,0,1,2.967,1.4,2.879,2.879,0,0,0,3.672.315,2.807,2.807,0,0,0,.3-4.284,10.839,10.839,0,0,0-4.132-2.583V42.8a2.806,2.806,0,0,0-3.222-2.776,2.862,2.862,0,0,0-2.388,2.862Zm0,0" transform="translate(1168.826 399.185)"/>
    <g id="Group_12247" data-name="Group 12247" transform="translate(1417.199 427.999)">
      <g id="Group_9378" data-name="Group 9378" transform="translate(0 0)">
        <path id="Path_244" data-name="Path 244" d="M76.441,11.52a12.408,12.408,0,0,0-1.481.089,12.992,12.992,0,0,0-3.544.956C63.459,15.947,57.6,27.156,57.6,40.426s5.859,24.479,13.817,27.861a12.992,12.992,0,0,0,3.544.956,12.408,12.408,0,0,0,1.481.089c10.389,0,18.841-12.967,18.841-28.906S86.83,11.52,76.441,11.52" transform="translate(-45.011 -9.008)" fill="#f8cc5d"/>
        <path id="Path_245" data-name="Path 245" d="M20.543,92.16H13.09a41.955,41.955,0,0,0-1.484,10.048h7.538a44.587,44.587,0,0,1,1.4-10.048" transform="translate(-9.075 -72.05)" fill="#f8cc5d"/>
        <path id="Path_246" data-name="Path 246" d="M32.976,46.08H25.925a30.641,30.641,0,0,0-3.865,7.536h7.4a34.578,34.578,0,0,1,3.516-7.536" transform="translate(-17.249 -36.025)" fill="#f8cc5d"/>
        <path id="Path_247" data-name="Path 247" d="M19.145,149.76H11.607a41.954,41.954,0,0,0,1.484,10.048h7.452a44.6,44.6,0,0,1-1.4-10.048" transform="translate(-9.076 -117.082)" fill="#f8cc5d"/>
        <path id="Path_248" data-name="Path 248" d="M61.372,11.609a12.459,12.459,0,0,0-1.481-.089c-3.93,0-7.582,1.856-10.605,5.024h6.745a22.014,22.014,0,0,1,5.341-4.935" transform="translate(-38.531 -9.008)" fill="#f8cc5d"/>
        <path id="Path_249" data-name="Path 249" d="M29.459,207.36h-7.4a30.648,30.648,0,0,0,3.865,7.536h7.051a34.6,34.6,0,0,1-3.516-7.536" transform="translate(-17.249 -162.114)" fill="#f8cc5d"/>
        <path id="Path_250" data-name="Path 250" d="M56.031,253.44H49.286c3.023,3.169,6.675,5.024,10.605,5.024a12.4,12.4,0,0,0,1.481-.089,22.011,22.011,0,0,1-5.341-4.935" transform="translate(-38.531 -198.14)" fill="#f8cc5d"/>
        <path id="Path_251" data-name="Path 251" d="M31.418,0H21.364C15.56,0,10.139,3.336,6.1,9.394,2.167,15.295,0,23.116,0,31.418S2.167,47.542,6.1,53.443c4.039,6.058,9.459,9.394,15.264,9.394H31.418c5.8,0,11.225-3.336,15.264-9.394,3.934-5.9,6.1-13.723,6.1-22.024s-2.167-16.124-6.1-22.024C42.644,3.336,37.223,0,31.418,0M21.364,2.513a12.421,12.421,0,0,1,1.481.089A22.022,22.022,0,0,0,17.5,7.54H10.753c3.024-3.17,6.679-5.027,10.611-5.027M8.68,10.054h7.055a34.608,34.608,0,0,0-3.518,7.54h-7.4a30.665,30.665,0,0,1,3.867-7.54M4.017,20.108h7.456a44.623,44.623,0,0,0-1.4,10.054H2.532A41.956,41.956,0,0,1,4.017,20.108M2.532,32.675h7.542a44.623,44.623,0,0,0,1.4,10.054H4.017A41.956,41.956,0,0,1,2.532,32.675M8.68,52.783a30.665,30.665,0,0,1-3.867-7.54h7.4a34.608,34.608,0,0,0,3.518,7.54Zm12.684,7.54c-3.932,0-7.587-1.857-10.611-5.027H17.5a22.021,22.021,0,0,0,5.344,4.938,12.42,12.42,0,0,1-1.481.089m10.054,0a12.42,12.42,0,0,1-1.481-.089,13.005,13.005,0,0,1-3.545-.956C18.43,55.9,12.567,44.688,12.567,31.418S18.43,6.94,26.391,3.559A13,13,0,0,1,29.937,2.6a12.421,12.421,0,0,1,1.481-.089c10.394,0,18.851,12.967,18.851,28.9s-8.457,28.9-18.851,28.9" transform="translate(0 0)" fill="#1f343e"/>
        <path id="Path_252" data-name="Path 252" d="M120.285,70.772l-6.372,25.211a.883.883,0,0,1-.621.66.827.827,0,0,1-.374.009,1.107,1.107,0,0,1-.833-1.038l-.776-14.537-8.1,2.114a.906.906,0,0,1-.854-.248,1.178,1.178,0,0,1-.353-.911l1.14-19.01a.915.915,0,0,1,.651-.862l8.175-2.134a.91.91,0,0,1,.871.264,1.178,1.178,0,0,1,.333.941l-1.022,10,6.958-1.816a.923.923,0,0,1,.925.322,1.174,1.174,0,0,1,.251,1.039" transform="translate(-79.74 -46.916)" fill="#ff007c"/>
        <path id="Path_253" data-name="Path 253" d="M119.109,69.41l-6.958,1.816,1.022-10a1.18,1.18,0,0,0-.333-.941.91.91,0,0,0-.871-.264l-8.175,2.134a.915.915,0,0,0-.651.862L102,82.032a1.177,1.177,0,0,0,.353.911.907.907,0,0,0,.854.248l8.1-2.114.777,14.537a1.106,1.106,0,0,0,.833,1.038.827.827,0,0,0,.374-.009.883.883,0,0,0,.621-.66l6.372-25.211a1.174,1.174,0,0,0-.251-1.039.924.924,0,0,0-.925-.322" transform="translate(-79.739 -46.916)" fill="#1f343e"/>
      </g>
    </g>
  </g>
</svg>
