<svg xmlns="http://www.w3.org/2000/svg" width="22" height="18.343" viewBox="0 0 22 18.343">
  <g id="email_icon" data-name="email icon" transform="translate(0.417 -0.917)">
    <g id="Union_28" data-name="Union 28" transform="translate(0.583 1.917)" fill="#bdc1c3" stroke-linecap="round">
      <path d="M 17.31353950500488 16.84284400939941 L 2.68523907661438 16.84284400939941 C 0.9293290376663208 16.84284400939941 -0.4992009401321411 15.41404438018799 -0.4992009401321411 13.65780353546143 L -0.4992009401321411 2.729777574539185 C -0.5006752014160156 2.688307046890259 -0.5001450777053833 2.649405241012573 -0.4975964725017548 2.611694574356079 C -0.4784995019435883 1.779446005821228 -0.1408338844776154 0.9995842576026917 0.4541990458965302 0.4142939150333405 C 1.053609013557434 -0.1752960830926895 1.845939040184021 -0.4999960958957672 2.68523907661438 -0.4999960958957672 L 17.31353950500488 -0.4999960958957672 C 18.15328979492188 -0.4999960958957672 18.94596862792969 -0.1753560900688171 19.54555892944336 0.4141339063644409 C 20.14081382751465 0.9993569254875183 20.47857856750488 1.779186010360718 20.49760055541992 2.611380815505981 C 20.50013160705566 2.649294137954712 20.50065422058105 2.688418388366699 20.49919891357422 2.730139493942261 L 20.49919891357422 13.65780353546143 C 20.49919891357422 15.41404438018799 19.07011985778809 16.84284400939941 17.31353950500488 16.84284400939941 Z M 2.214739084243774 5.291440010070801 L 2.214739084243774 13.65780353546143 C 2.214739084243774 13.91723346710205 2.425809144973755 14.12829399108887 2.68523907661438 14.12829399108887 L 17.31353950500488 14.12829399108887 C 17.57364845275879 14.12829399108887 17.78525924682617 13.91723346710205 17.78525924682617 13.65780353546143 L 17.78525924682617 5.291443347930908 L 10.77742862701416 10.19582366943359 C 10.55566883087158 10.3542537689209 10.27773857116699 10.44304370880127 9.998779296875 10.44304370880127 C 9.721388816833496 10.44304370880127 9.444329261779785 10.3542537689209 9.218628883361816 10.19303417205811 L 2.214739084243774 5.291440010070801 Z M 2.570402145385742 2.228786706924438 L 9.998823165893555 7.427789211273193 L 17.42913627624512 2.22900915145874 C 17.39186477661133 2.219528913497925 17.35309982299805 2.214553833007812 17.31353950500488 2.214553833007812 L 2.68523907661438 2.214553833007812 C 2.64592170715332 2.214553833007812 2.607408761978149 2.219453096389771 2.570402145385742 2.228786706924438 Z" stroke="none"/>
      <path d="M 17.31353950500488 16.34284400939941 C 18.79553985595703 16.34284400939941 19.99919891357422 15.13918399810791 19.99919891357422 13.65780353546143 L 19.99919891357422 2.720453977584839 C 20.00041961669922 2.692373991012573 20.00041961669922 2.663683891296387 19.99797821044922 2.634994029998779 C 19.97111892700195 1.176803946495056 18.77843856811523 3.912048214260722e-06 17.31353950500488 3.912048214260722e-06 L 2.68523907661438 3.912048214260722e-06 C 1.221559047698975 3.912048214260722e-06 0.02887904644012451 1.176803946495056 0.00201904634013772 2.635613918304443 C -0.0004209536709822714 2.663683891296387 -0.0004209536709822714 2.692373991012573 0.0007990463054738939 2.719843864440918 L 0.0007990463054738939 13.65780353546143 C 0.0007990463054738939 15.13918399810791 1.204469084739685 16.34284400939941 2.68523907661438 16.34284400939941 L 17.31353950500488 16.34284400939941 M 1.714739084243774 4.331233978271484 L 9.509259223937988 9.786173820495605 C 9.654528617858887 9.889944076538086 9.829089164733887 9.94304370880127 9.998779296875 9.94304370880127 C 10.17090892791748 9.94304370880127 10.34546947479248 9.889944076538086 10.49073886871338 9.786173820495605 L 18.28525924682617 4.331233978271484 L 18.28525924682617 13.65780353546143 C 18.28525924682617 14.1937141418457 17.84944915771484 14.62829399108887 17.31353950500488 14.62829399108887 L 2.68523907661438 14.62829399108887 C 2.150548934936523 14.62829399108887 1.714739084243774 14.1937141418457 1.714739084243774 13.65780353546143 L 1.714739084243774 4.331233978271484 M 2.68523907661438 1.714553952217102 L 17.31353950500488 1.714553952217102 C 17.71272850036621 1.714553952217102 18.05331993103027 1.954423904418945 18.20346832275391 2.297463893890381 L 9.998779296875 8.038053512573242 L 1.796529054641724 2.297463893890381 C 1.945459008216858 1.954423904418945 2.28727912902832 1.714553952217102 2.68523907661438 1.714553952217102 M 17.31353950500488 17.34284400939941 L 2.68523907661438 17.34284400939941 C 0.6536290645599365 17.34284400939941 -0.9992009401321411 15.6897439956665 -0.9992009401321411 13.65780353546143 L -0.9992009401321411 2.737976312637329 C -1.000754594802856 2.686779975891113 -1.000097990036011 2.637733936309814 -0.9971988201141357 2.589521169662476 C -0.9724841713905334 1.630526065826416 -0.58221834897995 0.7323992848396301 0.103579044342041 0.05783391371369362 C 0.7970890402793884 -0.6243160963058472 1.713939070701599 -0.9999960660934448 2.68523907661438 -0.9999960660934448 L 17.31353950500488 -0.9999960660934448 C 18.28524971008301 -0.9999960660934448 19.20241928100586 -0.624406099319458 19.89609909057617 0.05758391320705414 C 20.58222198486328 0.7321551442146301 20.97262573242188 1.630398154258728 20.99721145629883 2.589473724365234 C 21.00008392333984 2.637777805328369 21.0007381439209 2.686931610107422 20.99919891357422 2.738266468048096 L 20.99919891357422 13.65780353546143 C 20.99919891357422 15.6897439956665 19.3458194732666 17.34284400939941 17.31353950500488 17.34284400939941 Z M 2.714739084243774 13.62829399108887 L 17.28525924682617 13.62829399108887 L 17.28525924682617 6.25164270401001 L 11.06737899780273 10.60318279266357 C 10.75842952728271 10.82238960266113 10.37917900085449 10.94304370880127 9.998779296875 10.94304370880127 C 9.619941711425781 10.94304370880127 9.241556167602539 10.8223876953125 8.932616233825684 10.60317993164062 L 2.714739084243774 6.25164270401001 L 2.714739084243774 13.62829399108887 Z M 4.136475086212158 2.714553833007812 L 9.998867034912109 6.817524433135986 L 15.86300373077393 2.714553833007812 L 4.136475086212158 2.714553833007812 Z" stroke="none" fill="#1f343e"/>
    </g>
  </g>
</svg>
