<svg xmlns="http://www.w3.org/2000/svg" width="16.004" height="16" viewBox="0 0 16.004 16">
  <path id="Icon_awesome-instagram" data-name="Icon awesome-instagram" d="M8,6.135a4.1,4.1,0,1,0,4.1,4.1A4.1,4.1,0,0,0,8,6.135ZM8,12.9a2.667,2.667,0,1,1,2.667-2.667A2.672,2.672,0,0,1,8,12.9Zm5.227-6.937a.957.957,0,1,1-.957-.957A.955.955,0,0,1,13.225,5.968Zm2.717.971A4.735,4.735,0,0,0,14.65,3.586,4.766,4.766,0,0,0,11.3,2.294c-1.321-.075-5.28-.075-6.6,0A4.759,4.759,0,0,0,1.343,3.583,4.751,4.751,0,0,0,.051,6.935c-.075,1.321-.075,5.28,0,6.6a4.735,4.735,0,0,0,1.292,3.352A4.772,4.772,0,0,0,4.7,18.181c1.321.075,5.28.075,6.6,0a4.735,4.735,0,0,0,3.352-1.292,4.766,4.766,0,0,0,1.292-3.352c.075-1.321.075-5.277,0-6.6Zm-1.707,8.015a2.7,2.7,0,0,1-1.521,1.521c-1.053.418-3.552.321-4.716.321s-3.667.093-4.716-.321a2.7,2.7,0,0,1-1.521-1.521C1.343,13.9,1.44,11.4,1.44,10.238s-.093-3.667.321-4.716A2.7,2.7,0,0,1,3.282,4C4.335,3.583,6.834,3.679,8,3.679s3.667-.093,4.716.321a2.7,2.7,0,0,1,1.521,1.521c.418,1.053.321,3.552.321,4.716S14.653,13.9,14.235,14.954Z" transform="translate(0.005 -2.238)" fill="#fff"/>
</svg>
