<svg xmlns="http://www.w3.org/2000/svg" width="144" height="144" viewBox="0 0 144 144">
  <g id="Invite_Friends_Img" data-name="Invite Friends Img" transform="translate(-976 -198)">
    <rect id="Rectangle_4400" data-name="Rectangle 4400" width="144" height="144" transform="translate(976 198)" fill="none"/>
    <g id="invitation" transform="translate(961.316 199.777)">
      <path id="Path_21103" data-name="Path 21103" d="M100.313,320.142a5.491,5.491,0,0,0-7.114,0L36.565,368.3a5.467,5.467,0,0,0,3.747,1.485H153.2a5.467,5.467,0,0,0,3.747-1.485Z" transform="translate(-10.072 -231.398)" fill="#f8f4f9"/>
      <path id="Path_21104" data-name="Path 21104" d="M291.447,246.753l50.49,42.911a5.476,5.476,0,0,0,1.747-4.011v-75.19Z" transform="translate(-195.062 -152.766)" fill="#f8f4f9"/>
      <path id="Path_21105" data-name="Path 21105" d="M31.946,289.664l50.49-42.911L30.2,210.463v75.191A5.474,5.474,0,0,0,31.946,289.664Z" transform="translate(-5.453 -152.766)" fill="#f8f4f9"/>
      <path id="Path_21108" data-name="Path 21108" d="M45.8,162.137v24.1L30.2,175.4Z" transform="translate(-5.453 -117.666)" fill="#bdc1c3"/>
      <path id="Path_21110" data-name="Path 21110" d="M424.939,162.137v24.1l15.6-10.84Z" transform="translate(-291.921 -117.666)" fill="#bdc1c3"/>
      <path id="Path_21112" data-name="Path 21112" d="M123.673,99.5l6.165-5.243a5.49,5.49,0,0,1,7.113,0l6.165,5.243,36.612-25.45V7.515H87.061V74.049Z" transform="translate(-46.71 -5.495)" fill="#4eb3e3"/>
      <g id="Group_12236" data-name="Group 12236" transform="translate(22.684 0)">
        <path id="Path_21116" data-name="Path 21116" d="M148.622,88.9a2.061,2.061,0,0,0,2.061-2.061V57.731a2.085,2.085,0,0,0-.726-1.571L135.086,43.522V2.061A2.061,2.061,0,0,0,133.025,0H40.343a2.061,2.061,0,0,0-2.061,2.061V20.68a2.061,2.061,0,1,0,4.123,0V4.123h88.559V67.489L96.534,91.408l-4.958-4.213a7.526,7.526,0,0,0-9.784,0l-4.958,4.213L42.4,67.489V28.925a2.061,2.061,0,0,0-4.123,0v14.6L23.41,56.161a2.085,2.085,0,0,0-.726,1.571v75.159a7.579,7.579,0,0,0,2.4,5.514c1.525,1.426,0,0,0,0a7.527,7.527,0,0,0,5.155,2.039H143.13a7.527,7.527,0,0,0,5.155-2.039h0a7.579,7.579,0,0,0,2.4-5.514V95.083a2.061,2.061,0,0,0-4.123,0v37.808a3.414,3.414,0,0,1-.13.925L99.783,94.17l46.778-32.5V86.838A2.061,2.061,0,0,0,148.622,88.9ZM38.282,48.932V64.625l-10.16-7.058Zm-7.928,87.39,20.552-17.466a2.061,2.061,0,0,0-2.67-3.141l-21.3,18.1a3.418,3.418,0,0,1-.13-.925V61.673l46.778,32.5-19.066,16.2a2.061,2.061,0,0,0,2.67,3.141l27.274-23.18a3.418,3.418,0,0,1,4.444,0l54.108,45.986Zm104.732-71.7V48.932l10.16,8.635Z" transform="translate(-22.684 0)" fill="#1f343e"/>
      </g>
      <g id="Group_12246" data-name="Group 12246" transform="translate(66.52 20.477)">
        <g id="Group_9378" data-name="Group 9378" transform="translate(0 0)">
          <path id="Path_244" data-name="Path 244" d="M72,11.52a9.486,9.486,0,0,0-1.132.068,9.932,9.932,0,0,0-2.708.731C62.078,14.9,57.6,23.466,57.6,33.605s4.478,18.7,10.56,21.286a9.932,9.932,0,0,0,2.708.731A9.485,9.485,0,0,0,72,55.69c7.94,0,14.4-9.907,14.4-22.085S79.94,11.52,72,11.52" transform="translate(-47.991 -9.6)" fill="#f8cc5d"/>
          <path id="Path_245" data-name="Path 245" d="M18.436,92.16h-5.7a32.065,32.065,0,0,0-1.134,7.68h5.761a34.077,34.077,0,0,1,1.069-7.68" transform="translate(-9.672 -76.796)" fill="#f8cc5d"/>
          <path id="Path_246" data-name="Path 246" d="M30.4,46.08H25.014a23.419,23.419,0,0,0-2.954,5.76h5.656A26.428,26.428,0,0,1,30.4,46.08" transform="translate(-18.383 -38.398)" fill="#f8cc5d"/>
          <path id="Path_247" data-name="Path 247" d="M17.368,149.76H11.607a32.065,32.065,0,0,0,1.134,7.68h5.7a34.086,34.086,0,0,1-1.069-7.68" transform="translate(-9.673 -124.794)" fill="#f8cc5d"/>
          <path id="Path_248" data-name="Path 248" d="M58.523,11.588a9.523,9.523,0,0,0-1.132-.068,11.244,11.244,0,0,0-8.105,3.84h5.155a16.825,16.825,0,0,1,4.082-3.772" transform="translate(-41.069 -9.6)" fill="#f8cc5d"/>
          <path id="Path_249" data-name="Path 249" d="M27.715,207.36H22.059a23.424,23.424,0,0,0,2.954,5.76H30.4a26.442,26.442,0,0,1-2.687-5.76" transform="translate(-18.383 -172.792)" fill="#f8cc5d"/>
          <path id="Path_250" data-name="Path 250" d="M54.441,253.44H49.286a11.244,11.244,0,0,0,8.105,3.84,9.486,9.486,0,0,0,1.132-.068,16.824,16.824,0,0,1-4.082-3.772" transform="translate(-41.069 -211.19)" fill="#f8cc5d"/>
          <path id="Path_251" data-name="Path 251" d="M24.005,0H16.323C11.888,0,7.747,2.549,4.661,7.177A30.6,30.6,0,0,0,0,24.005,30.6,30.6,0,0,0,4.661,40.833c3.086,4.628,7.227,7.177,11.662,7.177h7.682c4.435,0,8.577-2.549,11.662-7.177a30.6,30.6,0,0,0,4.661-16.828A30.6,30.6,0,0,0,35.668,7.177C32.582,2.549,28.44,0,24.005,0M16.323,1.92a9.491,9.491,0,0,1,1.132.068,16.826,16.826,0,0,0-4.083,3.773H8.216A11.246,11.246,0,0,1,16.323,1.92M6.632,7.682h5.39a26.442,26.442,0,0,0-2.688,5.761H3.677A23.429,23.429,0,0,1,6.632,7.682M3.069,15.363h5.7A34.094,34.094,0,0,0,7.7,23.045H1.935a32.056,32.056,0,0,1,1.135-7.682m-1.135,9.6H7.7a34.094,34.094,0,0,0,1.069,7.682h-5.7a32.056,32.056,0,0,1-1.135-7.682m4.7,15.363a23.43,23.43,0,0,1-2.955-5.761H9.334a26.442,26.442,0,0,0,2.688,5.761Zm9.691,5.761a11.246,11.246,0,0,1-8.107-3.841h5.156a16.825,16.825,0,0,0,4.083,3.773,9.489,9.489,0,0,1-1.132.068m7.682,0a9.489,9.489,0,0,1-1.132-.068,9.936,9.936,0,0,1-2.709-.731C14.081,42.707,9.6,34.144,9.6,24.005S14.081,5.3,20.164,2.719a9.936,9.936,0,0,1,2.709-.731,9.491,9.491,0,0,1,1.132-.068c7.942,0,14.4,9.907,14.4,22.085S31.947,46.09,24.005,46.09" transform="translate(0 0)" fill="#1f343e"/>
          <path id="Path_252" data-name="Path 252" d="M115.975,68.228,111.1,87.487a.675.675,0,0,1-.474.5.632.632,0,0,1-.286.007.846.846,0,0,1-.637-.793l-.593-11.1-6.19,1.615a.693.693,0,0,1-.652-.189.9.9,0,0,1-.27-.7l.871-14.521a.7.7,0,0,1,.5-.659l6.248-1.63a.7.7,0,0,1,.665.2.9.9,0,0,1,.254.719l-.781,7.635,5.318-1.388a.706.706,0,0,1,.707.246.9.9,0,0,1,.192.793" transform="translate(-84.995 -50)" fill="#ff007c"/>
          <path id="Path_253" data-name="Path 253" d="M115.076,67.188l-5.318,1.388.781-7.635a.9.9,0,0,0-.254-.719.7.7,0,0,0-.665-.2l-6.248,1.63a.7.7,0,0,0-.5.659L102,76.83a.9.9,0,0,0,.27.7.694.694,0,0,0,.653.189l6.19-1.615.593,11.1a.845.845,0,0,0,.636.793.632.632,0,0,0,.286-.007.675.675,0,0,0,.474-.5l4.87-19.259a.9.9,0,0,0-.192-.793.706.706,0,0,0-.707-.246" transform="translate(-84.995 -50)" fill="#1f343e"/>
        </g>
      </g>
    </g>
  </g>
</svg>
