<svg xmlns="http://www.w3.org/2000/svg" xmlns:xlink="http://www.w3.org/1999/xlink" width="125.054" height="32" viewBox="0 0 125.054 32">
  <defs>
    <clipPath id="clip-path">
      <rect id="Rectangle_24" data-name="Rectangle 24" width="125.054" height="32" fill="none"/>
    </clipPath>
  </defs>
  <g id="Group_12" data-name="Group 12" clip-path="url(#clip-path)">
    <g id="Group_8202" data-name="Group 8202" transform="translate(1.29 1.28)">
      <path id="Path_186" data-name="Path 186" d="M45.6,7.2a6.332,6.332,0,0,0-.754.045,6.626,6.626,0,0,0-1.806.487C38.985,9.454,36,15.162,36,21.92s2.985,12.466,7.04,14.188a6.627,6.627,0,0,0,1.806.487,6.333,6.333,0,0,0,.754.045c5.294,0,9.6-6.6,9.6-14.72S50.894,7.2,45.6,7.2" transform="translate(-30.89 -7.2)" fill="#f8cc5d"/>
      <path id="Path_187" data-name="Path 187" d="M11.807,57.6H8.01a21.377,21.377,0,0,0-.756,5.12h3.841a22.721,22.721,0,0,1,.713-5.12" transform="translate(-7.254 -48.64)" fill="#f8cc5d"/>
      <path id="Path_188" data-name="Path 188" d="M19.349,28.8H15.756a15.618,15.618,0,0,0-1.969,3.84h3.77a17.619,17.619,0,0,1,1.792-3.84" transform="translate(-12.626 -24.96)" fill="#f8cc5d"/>
      <path id="Path_189" data-name="Path 189" d="M11.095,93.6H7.254a21.377,21.377,0,0,0,.756,5.12h3.8a22.721,22.721,0,0,1-.713-5.12" transform="translate(-7.254 -78.24)" fill="#f8cc5d"/>
      <path id="Path_190" data-name="Path 190" d="M36.962,7.245a6.33,6.33,0,0,0-.754-.045,7.5,7.5,0,0,0-5.4,2.56h3.437a11.214,11.214,0,0,1,2.721-2.515" transform="translate(-26.618 -7.2)" fill="#f8cc5d"/>
      <path id="Path_191" data-name="Path 191" d="M17.558,129.6h-3.77a15.619,15.619,0,0,0,1.969,3.84H19.35a17.628,17.628,0,0,1-1.792-3.84" transform="translate(-12.627 -107.84)" fill="#f8cc5d"/>
      <path id="Path_192" data-name="Path 192" d="M34.24,158.4H30.8a7.5,7.5,0,0,0,5.4,2.56,6.322,6.322,0,0,0,.754-.045A11.218,11.218,0,0,1,34.24,158.4" transform="translate(-26.617 -131.52)" fill="#f8cc5d"/>
    </g>
    <path id="Path_193" data-name="Path 193" d="M16,0H10.88C7.924,0,5.163,1.7,3.107,4.784A20.4,20.4,0,0,0,0,16,20.4,20.4,0,0,0,3.107,27.216C5.163,30.3,7.924,32,10.88,32H16c2.956,0,5.717-1.7,7.773-4.784A20.4,20.4,0,0,0,26.88,16,20.4,20.4,0,0,0,23.773,4.784C21.717,1.7,18.956,0,16,0M10.88,1.28a6.332,6.332,0,0,1,.754.045A11.215,11.215,0,0,0,8.913,3.84H5.476a7.5,7.5,0,0,1,5.4-2.56M4.42,5.12H8.013A17.628,17.628,0,0,0,6.222,8.96H2.451A15.619,15.619,0,0,1,4.42,5.12M2.046,10.24h3.8a22.721,22.721,0,0,0-.713,5.12H1.29a21.377,21.377,0,0,1,.756-5.12m-.756,6.4H5.13a22.721,22.721,0,0,0,.713,5.12h-3.8a21.377,21.377,0,0,1-.756-5.12M4.42,26.88a15.618,15.618,0,0,1-1.969-3.84h3.77a17.628,17.628,0,0,0,1.792,3.84Zm6.46,3.84a7.5,7.5,0,0,1-5.4-2.56H8.913a11.215,11.215,0,0,0,2.722,2.515,6.333,6.333,0,0,1-.754.045m5.12,0a6.333,6.333,0,0,1-.754-.045,6.627,6.627,0,0,1-1.806-.487C9.385,28.466,6.4,22.758,6.4,16S9.385,3.534,13.44,1.812a6.626,6.626,0,0,1,1.806-.487A6.332,6.332,0,0,1,16,1.28c5.294,0,9.6,6.6,9.6,14.72S21.294,30.72,16,30.72" transform="translate(0 0)" fill="#1f343e"/>
    <path id="Path_195" data-name="Path 195" d="M72.467,42.29l-3.545.925.521-5.088a.6.6,0,0,0-.17-.479.465.465,0,0,0-.444-.134L64.664,38.6a.466.466,0,0,0-.332.439l-.581,9.677a.6.6,0,0,0,.18.463.462.462,0,0,0,.435.126l4.127-1.076.4,7.4a.564.564,0,0,0,.424.529.422.422,0,0,0,.191,0,.45.45,0,0,0,.316-.336l3.247-12.834a.6.6,0,0,0-.128-.529.471.471,0,0,0-.471-.164" transform="translate(-52.417 -30.833)" fill="#1f343e"/>
    <path id="Path_196" data-name="Path 196" d="M221.917,42.754q-.084.391-.175.754t-.175.692a2.467,2.467,0,0,0-.084.607q0,.14-.265.335a4.545,4.545,0,0,1-.615.377q-.349.182-.685.329a4.887,4.887,0,0,1-.475.188q-.433.113-.859.217t-.859.23q.433.266.845.524t.845.51l.37.217q.2.119.4.252a1.772,1.772,0,0,1,.342.3.932.932,0,0,1,.2.377,5.637,5.637,0,0,1,.223,1.293q.042.692.042,1.334a10.973,10.973,0,0,0,.077,1.3q.077.643.147,1.313.07.532.119,1.069t.119,1.068q-.7-.112-1.348-.182a12.6,12.6,0,0,0-1.348-.07q-.363,0-.706-.014t-.692-.042q.2-.7.328-1.4a7.542,7.542,0,0,0,.133-1.411q0-.684-.014-1.369t-.014-1.369a1.978,1.978,0,0,0-.168-.733,2.284,2.284,0,0,0-.377-.65.964.964,0,0,0-.412-.132q-.342-.063-.748-.112t-.761-.077q-.356-.028-.454-.042.028,1.188.1,2.361t.07,2.361a3.857,3.857,0,0,0,.049.622q.049.3.119.607-.643-.112-1.258-.188a10.366,10.366,0,0,0-1.285-.077h-.692c-.228,0-.454-.009-.678-.028a7.907,7.907,0,0,0,.265-1.355q.07-.671.091-1.341t.021-1.341q0-.671.042-1.369.07-1.09.077-2.186t.007-2.187q0-1.1-.1-2.18t-.1-2.18a5.057,5.057,0,0,0-.084-.908,4.858,4.858,0,0,1-.084-.866.846.846,0,0,0-.091-.314q-.091-.2-.146-.315.4-.028.817-.042c.275-.009.547-.014.817-.014a11.466,11.466,0,0,1,1.551.105,11.358,11.358,0,0,0,1.537.1,8.044,8.044,0,0,0,.887-.048,8,8,0,0,1,.887-.049,4.664,4.664,0,0,1,.629.063q.419.063.859.174a5.668,5.668,0,0,1,.8.265.911.911,0,0,1,.461.335,5.508,5.508,0,0,0,.671.93,4.211,4.211,0,0,1,.643.956,1.1,1.1,0,0,1,.126.349c.028.14.051.287.07.441s.03.3.035.447.007.267.007.37a3.847,3.847,0,0,1-.084.81m-3.682-.817a5.523,5.523,0,0,0-.168-.594,5.99,5.99,0,0,0-.224-.565.772.772,0,0,0-.23-.329.525.525,0,0,0-.3-.062c-.126,0-.226.007-.3.007q-.293,0-.608.028c-.21.019-.417.028-.622.028q-.251,0-.5-.014t-.51-.042a7.073,7.073,0,0,1-.084,1.076,7.05,7.05,0,0,0-.084,1.076,13,13,0,0,0,.084,1.467q.084.741.154,1.453a4.415,4.415,0,0,1,.5-.252q.342-.154.727-.293t.741-.244a2.1,2.1,0,0,1,.524-.105.651.651,0,0,0,.545-.252,1.634,1.634,0,0,0,.286-.607,3.828,3.828,0,0,0,.112-.734c.014-.252.021-.456.021-.615a2.207,2.207,0,0,0-.063-.426" transform="translate(-173.654 -30.833)" fill="#1f343e"/>
    <path id="Path_197" data-name="Path 197" d="M275.478,61.041a12.688,12.688,0,0,0-1.279-.063q-.6,0-1.194.035t-1.209.1a14.145,14.145,0,0,1-.084-1.509q0-.307.021-.593a3.654,3.654,0,0,1,.091-.58q-.713.07-1.4.133a9.367,9.367,0,0,0-1.369.23,3.837,3.837,0,0,0-.2.517,3.252,3.252,0,0,0-.112.5,4.61,4.61,0,0,0-.042.51q-.007.258-.021.537-1.006.084-2.012.126t-2.026.126q.4-1.019.852-2.018t.873-2.006q.426-1.006.81-2.033a18.958,18.958,0,0,0,.65-2.1A21.138,21.138,0,0,1,268.5,50.8q.391-1.055.831-2.089t.9-2.06q.461-1.027.88-2.075.783,2.082,1.446,4.157t1.153,4.226a13.661,13.661,0,0,0,.482,1.558q.286.762.58,1.543.489,1.271,1,2.536t.957,2.577q-.629-.07-1.25-.132m-4.59-9.508-1.034,4.373,1.607-.2Z" transform="translate(-217.595 -36.65)" fill="#1f343e"/>
    <path id="Path_198" data-name="Path 198" d="M333.75,52.255a9.646,9.646,0,0,0-.049.971,7.1,7.1,0,0,0,.042.776,7.022,7.022,0,0,1,.042.761H333.3a8.41,8.41,0,0,1-1.383-.056,11.156,11.156,0,0,0-1.383-.084,4.225,4.225,0,0,1-.538-.034c-.182-.023-.356-.049-.524-.077a9.12,9.12,0,0,1,.133.95q.049.532.07,1.09t.021,1.111v1a7.913,7.913,0,0,0,.119,1.383,7.844,7.844,0,0,1,.119,1.369q0,.322-.014.636t-.014.621a12.019,12.019,0,0,0,.16,1.964,14.925,14.925,0,0,0,.44,1.893q-.405,0-.81-.014t-.8-.014a16.548,16.548,0,0,0-1.8.1q-.894.1-1.775.168l-.028-.461a7.276,7.276,0,0,1,.063-1.152q.077-.566.181-1.132t.2-1.132a9.306,9.306,0,0,0,.126-1.139,15.37,15.37,0,0,0,.035-1.788q-.035-.88-.035-1.76,0-.447.042-.88t.1-.852q.063-.419.126-.852t.091-.88h-.14a4.034,4.034,0,0,0-1.111.07q-.552.112-1.083.223a1.363,1.363,0,0,1-.482.182q-.356.084-.761.147t-.782.1c-.252.028-.438.047-.559.056q.112-.447.216-.9a4.121,4.121,0,0,0,.1-.93q0-.824-.056-1.649t-.056-1.649l1.195.391q.594.2,1.2.357t1.223.265a7.384,7.384,0,0,0,1.243.1h6.469a2.033,2.033,0,0,0,.5-.076q.293-.077.489-.147-.042.49-.091.972" transform="translate(-264.187 -41.431)" fill="#1f343e"/>
    <path id="Path_199" data-name="Path 199" d="M400.754,54.023l-.817-.1q-.4-.049-.81-.077t-.915-.028a10.849,10.849,0,0,0-1.306.077,10.769,10.769,0,0,1-1.292.076,3.12,3.12,0,0,1-.468-.034q-.231-.035-.468-.077a10,10,0,0,1,.14,1.251q.028.608.028,1.264,0,.251.014.524t.042.537q.838-.126,1.579-.2t1.46-.132q.719-.063,1.46-.14t1.565-.2l.14,3.1q-.349-.013-.643-.02t-.573-.035q-.279-.028-.566-.084c-.191-.037-.407-.089-.65-.154a5.653,5.653,0,0,0-.775-.154q-.426-.055-.866-.084t-.873-.042c-.289-.009-.554-.019-.8-.028l-.154,3.689h1.09q.684,0,1.271-.042t1.16-.09q.573-.049,1.16-.091t1.272-.042l.1,3.158q-.447-.028-.817-.048t-.72-.035L399,65.738c-.247-.009-.519-.014-.818-.014q-.531,0-1.125.007a5.782,5.782,0,0,0-1.125.118,7.9,7.9,0,0,1-1.593.182q-.839.014-1.593.014-.433,0-.838-.014c-.27-.009-.54-.014-.81-.014q.1-.251.266-.691t.335-.93q.168-.489.293-.95a2.95,2.95,0,0,0,.126-.727q0-.977-.056-1.949t-.126-1.942q-.07-.971-.126-1.942t-.056-1.95q0-.908.014-1.809t.042-1.824a5.906,5.906,0,0,0,.74.231,3.269,3.269,0,0,0,.769.09h.21q.922-.154,1.837-.279a13.369,13.369,0,0,1,1.823-.126q.573,0,1.118-.049t1.083-.126q.538-.077,1.076-.168t1.1-.175q-.028.307-.042.608t-.014.593a10.135,10.135,0,0,0,.063,1.1q.063.574.1,1.1-.5-.042-.922-.09" transform="translate(-321.57 -41.69)" fill="#1f343e"/>
    <path id="Path_200" data-name="Path 200" d="M464.2,52.693q-.042.448-.119.992T463.9,54.81q-.1.58-.231,1.09a9.309,9.309,0,0,1-.265.9,1.917,1.917,0,0,1-.279.559q-.2.21-.461.5a7.307,7.307,0,0,1-.573.566,4.206,4.206,0,0,1-.622.461,1.179,1.179,0,0,1-.608.188,3.452,3.452,0,0,1-.664-.076q-.384-.077-.8-.182t-.8-.223q-.391-.119-.685-.2.028,1.481.112,2.969t.112,2.983a5.187,5.187,0,0,0-1.062-.252q-.545-.07-1.09-.1t-1.09-.084a6.5,6.5,0,0,1-1.076-.189q.112-.474.223-.97a7.268,7.268,0,0,0,.154-.986,3,3,0,0,1,.1-.523q.07-.245.147-.475t.154-.469a1.971,1.971,0,0,0,.091-.5q.084-.824.1-1.649t.014-1.635c0-.214-.007-.43-.021-.649a4.383,4.383,0,0,0-.091-.65,8.735,8.735,0,0,1-.133-1.215q-.021-.587-.021-1.216a18.112,18.112,0,0,0-.154-2.34q-.154-1.181-.321-2.327a2.64,2.64,0,0,0,.538.161q.314.063.643.1t.65.048q.321.014.573.014.964,0,1.928-.042t1.928-.042a3.286,3.286,0,0,1,1.334.307,4.975,4.975,0,0,1,1.272.818,4.458,4.458,0,0,1,.95,1.166,2.75,2.75,0,0,1,.37,1.369c0,.159-.014.386-.042.685m-3.521,1.02q-.014-.321-.042-.677t-.07-.65a1.049,1.049,0,0,0-.084-.349,1,1,0,0,0-.461-.21q-.391-.112-.866-.23t-.915-.21q-.44-.091-.636-.147.042,1.118.084,2.229t.084,2.228q.405.042.817.105a5.591,5.591,0,0,0,.845.062.739.739,0,0,0,.259-.056,2.053,2.053,0,0,0,.293-.14,2.865,2.865,0,0,0,.28-.182,1.9,1.9,0,0,0,.216-.182.527.527,0,0,0,.126-.244,2.539,2.539,0,0,0,.063-.335,2.849,2.849,0,0,0,.021-.335v-.259q0-.1-.014-.419" transform="translate(-373.138 -39.557)" fill="#1f343e"/>
    <path id="Path_201" data-name="Path 201" d="M525.623,57.151q-.109,1.823-.109,3.653a8.413,8.413,0,0,0,.042.846,8.363,8.363,0,0,1,.042.845q0,.168-.042.538t-.112.845q-.07.475-.161.985t-.2.95a7.2,7.2,0,0,1-.231.755.807.807,0,0,1-.231.384q-.251.168-.566.357a6.045,6.045,0,0,1-.643.335,5.193,5.193,0,0,1-.664.244,2.292,2.292,0,0,1-.643.1,2.755,2.755,0,0,1-.768-.154q-.489-.154-1.013-.377T519.331,67q-.468-.231-.72-.385a3.538,3.538,0,0,1-1.265-1.222,5.778,5.778,0,0,1-.671-1.628,9.3,9.3,0,0,1-.258-1.809q-.042-.929-.042-1.754,0-.81.077-1.613t.168-1.614q.091-.81.168-1.621t.077-1.621a5.254,5.254,0,0,0-.056-.768q-.056-.377-.14-.769.434.042.861.077t.861.035a12.217,12.217,0,0,0,1.4-.084,15.8,15.8,0,0,0-.373,1.7q-.161.964-.267,1.984t-.162,2.006q-.056.985-.056,1.767,0,.21.007.636t.042.943q.035.517.091,1.062a8.682,8.682,0,0,0,.161,1.014,3.9,3.9,0,0,0,.258.8.737.737,0,0,0,.377.412q.182.042.37.07a2.547,2.547,0,0,0,.384.028,1.554,1.554,0,0,0,.384-.056,1.519,1.519,0,0,0,.405-.168,1.114,1.114,0,0,0,.314-.272.586.586,0,0,0,.126-.371,13.727,13.727,0,0,1,.07-1.4,13.655,13.655,0,0,0,.07-1.383q0-1.481-.084-2.955t-.084-3a4.721,4.721,0,0,1,.084-.887,3.55,3.55,0,0,0,.056-.888q.968.07,1.949.1t1.949.14q-.131,1.816-.24,3.64" transform="translate(-424.576 -42.918)" fill="#1f343e"/>
    <path id="Path_202" data-name="Path 202" d="M584.257,53.115q-.126.636-.238,1.264a17.334,17.334,0,0,0-.217,2q-.049.992-.188,2-.154,1.3-.356,2.585a16.687,16.687,0,0,0-.2,2.6q0,.88.084,1.774t.112,1.774q-1.034-.07-2.047-.1t-2.046-.133q.07-.726.132-1.453t.063-1.453a6.863,6.863,0,0,0-.175-1.613,6.193,6.193,0,0,0-.5-1.363,8.706,8.706,0,0,0-.782-1.25q-.454-.608-1-1.279-.028.754-.021,1.516a8.257,8.257,0,0,1-.119,1.488q-.154.922-.293,1.816a11.844,11.844,0,0,0-.14,1.83,6.915,6.915,0,0,0,.035.706q.035.342.1.691-.419,0-.859.014t-.873.014a4.436,4.436,0,0,1-.817-.076q-.412-.077-.817-.189.251-2.109.482-4.206a38.956,38.956,0,0,0,.231-4.261,13.38,13.38,0,0,0-.1-1.607q-.1-.81-.238-1.627t-.3-1.635q-.161-.817-.287-1.6a8.5,8.5,0,0,0,1.251.1h1.25q.489,0,.971.028l.971.056a8.8,8.8,0,0,1,.265,1.146q.111.657.231,1.321t.272,1.264a4.008,4.008,0,0,0,.377.992,11.517,11.517,0,0,0,.761,1.2,10.709,10.709,0,0,1,.747,1.18q.265.475.517.943t.489.943q.084-1.187.154-2.375t.07-2.375a8.03,8.03,0,0,0-.265-2.11,19.662,19.662,0,0,0-.671-2.012q.531.014,1.055.049t1.055.076q.531.042,1.062.077t1.062.021q-.126.629-.252,1.265" transform="translate(-471.038 -42.207)" fill="#1f343e"/>
    <path id="Path_203" data-name="Path 203" d="M649.189,50.978q-.7.789-1.411,1.557t-1.425,1.545q-.712.775-1.369,1.6.112.14.4.482l.65.775q.363.433.754.916l.727.894q.335.412.559.705a1.361,1.361,0,0,1,.237.377,5.5,5.5,0,0,0,.356.964q.217.448.461.866t.475.852a6.292,6.292,0,0,1,.4.922q-.964.042-1.823.112a9.829,9.829,0,0,0-1.782.321,11.773,11.773,0,0,0-.447-1.9,6.621,6.621,0,0,0-.908-1.761,14.733,14.733,0,0,1-1.048-1.7q-.461-.88-.95-1.761-.028.532-.084,1.048a9.737,9.737,0,0,0-.056,1.048,12.747,12.747,0,0,0,.07,1.335q.07.664.175,1.313t.216,1.3q.112.65.2,1.306h-.405a5.289,5.289,0,0,1-.859-.042q-.426-.056-.852-.132l-.852-.154a5.959,5.959,0,0,0-.873-.091q.112-1.285.3-2.563a17.751,17.751,0,0,0,.189-2.592q0-1.174-.1-2.508t-.272-2.711q-.168-1.376-.37-2.711t-.4-2.508q.447.084.915.14a7.934,7.934,0,0,0,.943.056q.614,0,1.244-.028a3.052,3.052,0,0,0,1.188-.293v1.774a10.128,10.128,0,0,1-.063,1.132q-.063.559-.133,1.111t-.133,1.11a9.962,9.962,0,0,0-.063,1.118c0,.1,0,.2.007.3a1.4,1.4,0,0,0,.049.3q.573-.866,1.041-1.677t.88-1.627q.412-.817.776-1.684t.713-1.858a8.1,8.1,0,0,0,1,.433q.51.182,1.02.329l1.027.293q.517.147,1.034.328-.615.852-1.313,1.642" transform="translate(-525.449 -39.428)" fill="#1f343e"/>
  </g>
</svg>
