<svg xmlns="http://www.w3.org/2000/svg" xmlns:xlink="http://www.w3.org/1999/xlink" width="20.285" height="18" viewBox="0 0 20.285 18">
  <defs>
    <clipPath id="clip-path">
      <path id="fill" d="M1.306,16a1.333,1.333,0,0,1,0-2.666H11.754a1.333,1.333,0,0,1,0,2.666Zm0-6.666a1.333,1.333,0,0,1,0-2.666H16.978a1.333,1.333,0,0,1,0,2.666Zm0-6.667A1.319,1.319,0,0,1,0,1.333,1.319,1.319,0,0,1,1.306,0H16.978a1.32,1.32,0,0,1,1.307,1.333,1.32,1.32,0,0,1-1.307,1.333Z" fill="#bdc1c3" stroke="#1f343e" stroke-width="1"/>
    </clipPath>
  </defs>
  <g id="Group_1149" data-name="Group 1149" transform="translate(1 1)">
    <path id="fill-2" data-name="fill" d="M1.829,16C.819,16,0,15.4,0,14.667s.819-1.334,1.829-1.334H16.457c1.01,0,1.829.6,1.829,1.334S17.467,16,16.457,16ZM1.306,9.333a1.333,1.333,0,0,1,0-2.666H16.978a1.333,1.333,0,0,1,0,2.666Zm0-6.666A1.321,1.321,0,0,1,0,1.333,1.32,1.32,0,0,1,1.306,0H16.978a1.319,1.319,0,0,1,1.306,1.333,1.32,1.32,0,0,1-1.306,1.334Z" fill="#bdc1c3"/>
    <path id="fill_-_Outline" data-name="fill - Outline" d="M16.457,16c1.01,0,1.829-.6,1.829-1.333s-.819-1.334-1.829-1.334H1.829c-1.01,0-1.829.6-1.829,1.334S.819,16,1.829,16H16.457m.521-6.667a1.333,1.333,0,0,0,0-2.666H1.306a1.333,1.333,0,0,0,0,2.666H16.978m0-6.666a1.32,1.32,0,0,0,1.306-1.334A1.319,1.319,0,0,0,16.978,0H1.306A1.32,1.32,0,0,0,0,1.333,1.321,1.321,0,0,0,1.306,2.667H16.978M16.457,17H1.829A2.589,2.589,0,0,1-1,14.667a2.589,2.589,0,0,1,2.829-2.334H16.457a2.589,2.589,0,0,1,2.829,2.334A2.589,2.589,0,0,1,16.457,17Zm.521-6.667H1.306a2.333,2.333,0,0,1,0-4.666H16.978a2.333,2.333,0,0,1,0,4.666Zm0-6.666H1.306A2.323,2.323,0,0,1-1,1.333,2.322,2.322,0,0,1,1.306-1H16.978a2.322,2.322,0,0,1,2.306,2.333A2.323,2.323,0,0,1,16.978,3.667Z" fill="#1f343e"/>
  </g>
</svg>
