<svg xmlns="http://www.w3.org/2000/svg" width="32" height="32" viewBox="0 0 32 32">
  <g id="Group_12260" data-name="Group 12260" transform="translate(-464 -473)">
    <circle id="Ellipse_221" data-name="Ellipse 221" cx="16" cy="16" r="16" transform="translate(464 473)" fill="#8cd943"/>
    <path id="Ellipse_221_-_Outline" data-name="Ellipse 221 - Outline" d="M16,1A15,15,0,0,0,5.393,26.607,15,15,0,1,0,26.607,5.393,14.9,14.9,0,0,0,16,1m0-1A16,16,0,1,1,0,16,16,16,0,0,1,16,0Z" transform="translate(464 473)" fill="#1f343e"/>
    <path id="Icon_awesome-check" data-name="Icon awesome-check" d="M5.434,16.274l-5.2-5.2a.8.8,0,0,1,0-1.131L1.366,8.812a.8.8,0,0,1,1.131,0l3.5,3.5,7.5-7.5a.8.8,0,0,1,1.131,0l1.131,1.131a.8.8,0,0,1,0,1.131l-9.2,9.2A.8.8,0,0,1,5.434,16.274Z" transform="translate(472 478.457)" fill="#fff"/>
    <path id="Icon_awesome-check_-_Outline" data-name="Icon awesome-check - Outline" d="M6,16.509a.8.8,0,0,0,.566-.234l9.2-9.2a.8.8,0,0,0,0-1.131L14.634,4.812a.8.8,0,0,0-1.131,0L6,12.314l-3.5-3.5a.8.8,0,0,0-1.131,0L.234,9.943a.8.8,0,0,0,0,1.131l5.2,5.2A.8.8,0,0,0,6,16.509m0,1a1.788,1.788,0,0,1-1.273-.527l-5.2-5.2a1.8,1.8,0,0,1,0-2.546L.659,8.1A1.8,1.8,0,0,1,3.2,8.1L6,10.9l6.8-6.8a1.8,1.8,0,0,1,2.546,0l1.131,1.131a1.8,1.8,0,0,1,0,2.546l-9.2,9.2A1.788,1.788,0,0,1,6,17.509Z" transform="translate(472 478.457)" fill="#1f343e"/>
  </g>
</svg>
