<svg xmlns="http://www.w3.org/2000/svg" width="13.9" height="16" viewBox="0 0 13.9 16">
  <path id="Icon_simple-tiktok" data-name="Icon simple-tiktok" d="M9.669.013C10.542,0,11.409.007,12.276,0a4.152,4.152,0,0,0,1.167,2.78,4.7,4.7,0,0,0,2.827,1.193V6.66a7.136,7.136,0,0,1-2.8-.647,8.237,8.237,0,0,1-1.08-.62c-.007,1.947.007,3.893-.013,5.833a5.092,5.092,0,0,1-.9,2.627,4.967,4.967,0,0,1-3.94,2.14,4.861,4.861,0,0,1-2.72-.687A5.027,5.027,0,0,1,2.383,11.5c-.013-.333-.02-.667-.007-.993A5.019,5.019,0,0,1,8.2,6.053c.013.987-.027,1.973-.027,2.96a2.287,2.287,0,0,0-2.92,1.413A2.645,2.645,0,0,0,5.156,11.5a2.269,2.269,0,0,0,2.333,1.913A2.24,2.24,0,0,0,9.336,12.34a1.538,1.538,0,0,0,.273-.707c.067-1.193.04-2.38.047-3.573.007-2.687-.007-5.367.013-8.047Z" transform="translate(-2.369)" fill="#fff"/>
</svg>
