<svg xmlns="http://www.w3.org/2000/svg" width="144" height="107" viewBox="0 0 144 107">
  <g id="Get_voucher_img" data-name="Get voucher img" transform="translate(-928 -670)">
    <g id="gift-card" transform="translate(928 670)">
      <g id="Group_12237" data-name="Group 12237" transform="translate(6.649 1.641)">
        <path id="Path_21125" data-name="Path 21125" d="M30.394,265.46v25.461a6.693,6.693,0,0,0,6.693,6.691h9.224l4.167-32.152Z" transform="translate(-30.394 -229.175)" fill="#fd6f71"/>
        <path id="Path_21126" data-name="Path 21126" d="M50.371,126.289l-4.06-26.715H37.087a6.693,6.693,0,0,0-6.693,6.693v20.023Z" transform="translate(-30.394 -99.574)" fill="#fd6f71"/>
      </g>
      <g id="Group_12239" data-name="Group 12239" transform="translate(27.965 1.641)">
        <path id="Path_21129" data-name="Path 21129" d="M172.945,240.5l-45.073,5.461,4.166,32.152h71.535a6.693,6.693,0,0,0,6.693-6.691V245.959Z" transform="translate(-127.872 -209.674)" fill="#ed6f82"/>
        <path id="Path_21130" data-name="Path 21130" d="M203.957,99.574H132.421l-4.059,26.715,44.966,4.115,37.321-4.115V106.266A6.693,6.693,0,0,0,203.957,99.574Z" transform="translate(-128.255 -99.574)" fill="#ed6f82"/>
      </g>
      <g id="Group_12240" data-name="Group 12240" transform="translate(6.641 1.64)">
        <rect id="Rectangle_4394" data-name="Rectangle 4394" width="9.575" height="68.436" transform="translate(15.924)" fill="#f8cc5d"/>
        <rect id="Rectangle_4395" data-name="Rectangle 4395" width="103.717" height="9.576" transform="translate(0 26.713)" fill="#f8cc5d"/>
      </g>
      <path id="Path_21131" data-name="Path 21131" d="M27.407,205.35C13.03,218.575,7.5,210.36,7.5,200.015s5.53-18.56,19.907-5.334Z" transform="translate(-5.859 -166.883)" fill="#f8f4f9"/>
      <path id="Path_21133" data-name="Path 21133" d="M151.576,205.351c14.377,13.225,19.907,5.01,19.907-5.334s-5.53-18.56-19.907-5.334Z" transform="translate(-118.419 -166.884)" fill="#f8f4f9"/>
      <path id="Path_21135" data-name="Path 21135" d="M96.752,211.641h-2.62a6.977,6.977,0,0,0-6.977,6.977h0a6.977,6.977,0,0,0,6.977,6.977h2.62a6.977,6.977,0,0,0,6.977-6.977h0A6.977,6.977,0,0,0,96.752,211.641Z" transform="translate(-68.089 -185.486)" fill="#f8f4f9"/>
      <path id="Path_21136" data-name="Path 21136" d="M267.141,313.891a1.641,1.641,0,0,0,1.641-1.641v-3.2a1.641,1.641,0,0,0-3.282,0v3.2A1.64,1.64,0,0,0,267.141,313.891Z" transform="translate(-207.422 -260.304)" fill="#1f343e"/>
      <path id="Path_21137" data-name="Path 21137" d="M428.862,313.891a1.641,1.641,0,0,0,1.641-1.641v-3.2a1.641,1.641,0,0,0-3.282,0v3.2A1.641,1.641,0,0,0,428.862,313.891Z" transform="translate(-333.768 -260.304)" fill="#1f343e"/>
      <path id="Path_21138" data-name="Path 21138" d="M332.408,326.236a7.414,7.414,0,0,0,5.6-2.493,1.641,1.641,0,1,0-2.471-2.16,4.261,4.261,0,0,1-6.262,0,1.641,1.641,0,1,0-2.471,2.16A7.415,7.415,0,0,0,332.408,326.236Z" transform="translate(-255.001 -270.941)" fill="#1f343e"/>
      <path id="Path_21139" data-name="Path 21139" d="M103.667,92.074H13.341a8.342,8.342,0,0,0-8.333,8.333v12.1C1.845,114.49,0,118.988,0,125.206s1.845,10.716,5.008,12.7v17.557a8.341,8.341,0,0,0,8.333,8.331h90.326A8.341,8.341,0,0,0,112,155.461V100.407A8.342,8.342,0,0,0,103.667,92.074Zm5.051,8.333v18.38H99.768a1.641,1.641,0,1,0,0,3.281h8.951v6.293H54.529c0-.02,0-.041.006-.062a28.61,28.61,0,0,0,0-6.232H93.205a1.641,1.641,0,0,0,0-3.281H53.9c-1.03-3.677-2.994-6.083-5.729-7a8.2,8.2,0,0,0-3.269-.372c-2.894.237-6.225,1.833-9.957,4.773q-.592.466-1.168.952V95.355h69.888A5.057,5.057,0,0,1,108.719,100.407Zm-63.5,35.33a11.461,11.461,0,0,1-4.854-1.748c-.438-.253-5.019-3.342-4.859-3.551a8.6,8.6,0,0,0,1.684-4.025c.007-.045.014-.091.02-.137a42.993,42.993,0,0,1,10.007-1.293,1.641,1.641,0,0,0,0-3.281,45.9,45.9,0,0,0-10.24,1.256,8.827,8.827,0,0,0-.383-1.111,8.6,8.6,0,0,0-1.087-1.871c4.164-3.586,7.769-5.424,10.393-5.306,4.507.2,5.418,6.395,5.51,9.825.1,3.761-.5,11.257-5.762,11.257Q45.436,135.751,45.222,135.737Zm-14.829-5.494a5.2,5.2,0,0,1-1.725.3H26.034a5.4,5.4,0,0,1-5.315-4.975c0-.025,0-.05-.006-.076a5.408,5.408,0,0,1,5.328-5.622h2.62a5.33,5.33,0,0,1,1.732,10.372Zm.1-13.456-.016,0a8.347,8.347,0,0,0-1.82-.2h-2.62a8.632,8.632,0,0,0-1.82.2l-.016,0V95.355H30.5v21.432ZM8.29,111.416V100.407a5.057,5.057,0,0,1,5.052-5.052h7.583v21.781l-.06-.049c-3.394-2.853-7.823-6.073-12.5-5.676Zm-5.008,13.79c0-8.994,3.731-10.363,5.386-10.526,3.684-.362,7,2.379,9.66,4.563.069.057.863.737.868.731a8.6,8.6,0,0,0-1.088,1.871c-.042.1-.383,1.112-.383,1.112A45.884,45.884,0,0,0,7.483,121.7a1.641,1.641,0,0,0,0,3.281,43,43,0,0,1,10.007,1.293c.006.046.013.091.02.137a8.674,8.674,0,0,0,1.684,4.025c-.1.088-.2.177-.307.264-4.148,3.511-7.7,5.244-10.283,5.025C6.92,135.534,3.281,134.087,3.281,125.206Zm19.283,25.368a1.641,1.641,0,0,0-1.641,1.641v8.3H13.341a5.056,5.056,0,0,1-5.052-5.049V139a7.169,7.169,0,0,0,1.148.022c2.49-.105,5.316-1.247,8.454-3.417,1.048-.725,2.056-1.51,3.032-2.33v12.376a1.641,1.641,0,1,0,3.281,0V133.625l.017,0a8.337,8.337,0,0,0,1.787.194h2.684a9.269,9.269,0,0,0,1.788-.194l.016,0V160.51H24.2v-8.3A1.641,1.641,0,0,0,22.564,150.575Zm86.154,4.886a5.056,5.056,0,0,1-5.051,5.049H33.779V133.275l.062.051c3.329,2.8,7.2,5.715,11.761,5.705a8.2,8.2,0,0,0,7.157-4.511,14.268,14.268,0,0,0,1.137-2.877h54.823Z" transform="translate(0 -92.074)" fill="#1f343e"/>
    </g>
    <g id="gift-card_1_" data-name="gift-card (1)" transform="translate(944 686)">
      <path id="Path_21140" data-name="Path 21140" d="M123,170H20a10,10,0,0,1-10-10V94A10,10,0,0,1,20,84H123a10,10,0,0,1,10,10v66A10,10,0,0,1,123,170Z" transform="translate(-7.5 -81.5)" fill="#8cd943"/>
      <g id="Group_12241" data-name="Group 12241" transform="translate(62.338 45.5)">
        <path id="Path_21141" data-name="Path 21141" d="M350.114,261.686,365.6,289.212l2.248-8.4,8.4,2.255-12-21.377Z" transform="translate(-324.923 -260.264)" fill="#fff"/>
        <path id="Path_21142" data-name="Path 21142" d="M273.441,256,260,279.277l-2.248-8.4-8.4,2.255,7.829-13.878Z" transform="translate(-249.35 -256)" fill="#fff"/>
      </g>
      <path id="Path_21143" data-name="Path 21143" d="M335.392,209.188h-1.283a5.134,5.134,0,0,1-5.134-5.134v-5.348a5.134,5.134,0,0,1,5.134-5.134h1.283a5.134,5.134,0,0,1,5.134,5.134v5.348A5.134,5.134,0,0,1,335.392,209.188Z" transform="translate(-246.731 -163.679)" fill="#f8cc5d"/>
      <g id="Group_12242" data-name="Group 12242" transform="translate(61.688 23.849)">
        <path id="Path_21144" data-name="Path 21144" d="M268.394,176.647l-14.317-6.755a5.134,5.134,0,0,0-7.325,4.643v17.516a5.134,5.134,0,0,0,7.325,4.643l14.317-6.755" transform="translate(-246.752 -169.395)" fill="#fff"/>
        <path id="Path_21145" data-name="Path 21145" d="M370.682,189.94,385,196.694a5.134,5.134,0,0,0,7.325-4.643V174.535A5.134,5.134,0,0,0,385,169.892l-14.317,6.755" transform="translate(-339.699 -169.395)" fill="#fff"/>
      </g>
      <path id="Path_21146" data-name="Path 21146" d="M115.5,74H12.5A12.514,12.514,0,0,0,0,86.5v66A12.514,12.514,0,0,0,12.5,165H51.25a2.5,2.5,0,0,0,0-5H12.5A7.509,7.509,0,0,1,5,152.5V122H59.335a7.592,7.592,0,0,0,3.4,4.953,7.68,7.68,0,0,0,1.843.849l-4.4,7.569a2.5,2.5,0,0,0,2.809,3.671l5.986-1.607,1.6,5.988a2.5,2.5,0,0,0,4.58.6l11.4-19.742,14.28,25.388a2.5,2.5,0,0,0,4.594-.579l1.6-5.988,5.986,1.607a2.5,2.5,0,0,0,2.823-3.649l-7.352-12.955c.232.021.465.035.7.035A7.649,7.649,0,0,0,116.665,122H123v30.5a7.509,7.509,0,0,1-7.5,7.5h-25V146.5a2.5,2.5,0,1,0-5,0V160H72.509a2.5,2.5,0,0,0,0,5H115.5A12.514,12.514,0,0,0,128,152.5v-66A12.514,12.514,0,0,0,115.5,74ZM91.3,109.027v5.348a2.637,2.637,0,0,1-2.634,2.634H87.378a2.637,2.637,0,0,1-2.634-2.634v-5.348a2.637,2.637,0,0,1,2.634-2.634h1.284A2.637,2.637,0,0,1,91.3,109.027ZM5,86.5A7.509,7.509,0,0,1,12.5,79h73v21.417a2.485,2.485,0,0,0,.28,1.146,7.589,7.589,0,0,0-2.243.871L70.079,96.085a7.634,7.634,0,0,0-10.891,6.9V117H5Zm59.188,16.489a2.634,2.634,0,0,1,3.758-2.382l12.266,5.787a7.6,7.6,0,0,0-.468,2.633v5.348a7.587,7.587,0,0,0,.5,2.71l-12.3,5.8a2.634,2.634,0,0,1-3.758-2.382V102.989h0ZM73.843,136.3l-.688-2.571a2.5,2.5,0,0,0-3.063-1.769l-2.545.683,3.235-5.563,11.523-5.436Zm32.064,1.331a2.5,2.5,0,0,0-3.063,1.768l-.663,2.477L90.831,121.693a7.585,7.585,0,0,0,1.566-.665l8.632,4.073,7.51,13.233Zm5.9-17.124a2.634,2.634,0,0,1-3.758,2.382L95.79,117.1a7.594,7.594,0,0,0,.5-2.726v-5.348a7.6,7.6,0,0,0-.474-2.648l12.233-5.772a2.634,2.634,0,0,1,3.758,2.382v17.516Zm5-3.5V102.989a7.634,7.634,0,0,0-10.892-6.9l-13.436,6.339a7.581,7.581,0,0,0-2.26-.869,2.487,2.487,0,0,0,.276-1.138V79h25a7.509,7.509,0,0,1,7.5,7.5V117Z" transform="translate(0 -74)" fill="#1f343e"/>
      <path id="Path_21147" data-name="Path 21147" d="M239.25,418a2.5,2.5,0,1,0,1.767.732A2.519,2.519,0,0,0,239.25,418Z" transform="translate(-177.563 -332)" fill="#1f343e"/>
      <path id="Path_21148" data-name="Path 21148" d="M93.375,128H56.5a2.5,2.5,0,0,0,0,5H93.375a2.5,2.5,0,0,0,0-5Z" transform="translate(-40.5 -114.5)" fill="#1f343e"/>
      <path id="Path_21149" data-name="Path 21149" d="M93.375,354H56.5a2.5,2.5,0,0,0,0,5H93.375a2.5,2.5,0,0,0,0-5Z" transform="translate(-40.5 -284)" fill="#1f343e"/>
      <path id="Path_21150" data-name="Path 21150" d="M72,182H56.5a2.5,2.5,0,0,0,0,5H72a2.5,2.5,0,0,0,0-5Z" transform="translate(-40.5 -155)" fill="#1f343e"/>
      <path id="Path_21151" data-name="Path 21151" d="M157.19,182a2.5,2.5,0,1,0,1.768.732A2.515,2.515,0,0,0,157.19,182Z" transform="translate(-116.018 -155)" fill="#1f343e"/>
    </g>
  </g>
</svg>
